HIERARCHY
ROOT Hips
{
 OFFSET 0.000000 0.000000 0.000000
 CHANNELS 6 Xposition Yposition Zposition Yrotation Xrotation Zrotation
 JOINT Chest
 {
  OFFSET 0.000000 9.910571 -0.011835
  CHANNELS 3 Yrotation Xrotation Zrotation
  JOINT Chest2
  {
   OFFSET 0.000000 10.789473 0.021497
   CHANNELS 3 Yrotation Xrotation Zrotation
   JOINT Chest3
   {
    OFFSET 0.000000 9.748205 0.000000
    CHANNELS 3 Yrotation Xrotation Zrotation
    JOINT Chest4
    {
     OFFSET 0.000000 9.748205 0.000000
     CHANNELS 3 Yrotation Xrotation Zrotation
     JOINT Neck
     {
      OFFSET 0.000000 13.998479 0.000000
      CHANNELS 3 Yrotation Xrotation Zrotation
      JOINT Head
      {
       OFFSET 0.000000 9.082285 0.051121
       CHANNELS 3 Yrotation Xrotation Zrotation
       End Site
       {
        OFFSET 0.000000 17.246134 0.026702
       }
      }
     }
     JOINT RightCollar
     {
      OFFSET -3.284495 7.824262 0.000000
      CHANNELS 3 Yrotation Xrotation Zrotation
      JOINT RightShoulder
      {
       OFFSET -15.534540 0.000000 0.000000
       CHANNELS 3 Yrotation Xrotation Zrotation
       JOINT RightElbow
       {
        OFFSET 0.000000 -28.251216 0.000000
        CHANNELS 3 Yrotation Xrotation Zrotation
        JOINT RightWrist
        {
         OFFSET 0.000000 -23.418114 0.012537
         CHANNELS 3 Yrotation Xrotation Zrotation
         End Site
         {
          OFFSET 0.000000 -17.723959 0.000000
         }
        }
       }
      }
     }
     JOINT LeftCollar
     {
      OFFSET 3.284495 7.824262 0.000000
      CHANNELS 3 Yrotation Xrotation Zrotation
      JOINT LeftShoulder
      {
       OFFSET 15.534540 0.000000 0.000000
       CHANNELS 3 Yrotation Xrotation Zrotation
       JOINT LeftElbow
       {
        OFFSET 0.000000 -28.251216 0.000000
        CHANNELS 3 Yrotation Xrotation Zrotation
        JOINT LeftWrist
        {
         OFFSET 0.000000 -23.418114 0.012537
         CHANNELS 3 Yrotation Xrotation Zrotation
         End Site
         {
          OFFSET 0.000000 -17.723959 0.000000
         }
        }
       }
      }
     }
    }
   }
  }
 }
 JOINT RightHip
 {
  OFFSET -8.142657 0.057990 0.005917
  CHANNELS 3 Yrotation Xrotation Zrotation
  JOINT RightKnee
  {
   OFFSET 0.000000 -49.716894 0.008478
   CHANNELS 3 Yrotation Xrotation Zrotation
   JOINT RightAnkle
   {
    OFFSET 0.000000 -43.994153 0.004166
    CHANNELS 3 Yrotation Xrotation Zrotation
    JOINT RightToe
    {
     OFFSET 0.000000 -7.619154 17.822051
     CHANNELS 3 Yrotation Xrotation Zrotation
     End Site
     {
      OFFSET 0.000000 -1.595627 7.159905
     }
    }
   }
  }
 }
 JOINT LeftHip
 {
  OFFSET 8.142657 0.057990 0.005917
  CHANNELS 3 Yrotation Xrotation Zrotation
  JOINT LeftKnee
  {
   OFFSET 0.000000 -49.716894 0.008478
   CHANNELS 3 Yrotation Xrotation Zrotation
   JOINT LeftAnkle
   {
    OFFSET 0.000000 -43.994153 0.004166
    CHANNELS 3 Yrotation Xrotation Zrotation
    JOINT LeftToe
    {
     OFFSET 0.000000 -7.619154 17.822051
     CHANNELS 3 Yrotation Xrotation Zrotation
     End Site
     {
      OFFSET 0.000000 -1.595627 7.159905
     }
    }
   }
  }
 }
}
MOTION
Frames: 5
Frame Time: 0.008333
496.866980 56.976095 373.846230 -52.316138 -53.626818 3.100662 -2.337065 21.841794 -2.305832 -0.915844 9.720462 -0.884768 -0.915844 9.720462 -0.884768 -0.671033 7.291705 -0.647284 -4.987553 13.489058 0.364624 -9.580364 -10.939646 2.691620 -1.691776 7.566889 10.840215 26.938834 -14.275949 -23.162602 -14.179714 -44.810395 41.792834 10.667619 -9.062634 -16.510235 -2.287846 9.215193 -9.771312 -10.016344 -16.015302 18.846067 25.423102 -70.558790 -22.755214 -33.263500 21.711854 -16.244925 -12.097050 -32.621588 0.610639 -29.809540 71.340693 -43.681748 -1.391181 10.229078 0.526413 -0.007984 -0.090556 0.090830 9.719880 -36.925512 8.669662 102.898966 82.190274 101.100061 3.119896 -5.677997 -4.536934 0.173843 1.887729 3.705714
496.876351 56.963860 373.880148 -52.278639 -53.634213 3.065574 -2.327235 21.857976 -2.313955 -0.904140 9.725402 -0.884155 -0.904140 9.725402 -0.884155 -0.662277 7.295391 -0.647003 -5.021841 13.522927 0.363646 -9.642349 -10.874508 2.700450 -1.673561 7.623589 10.906304 26.913660 -14.320692 -23.214135 -14.263978 -44.808558 41.872583 10.726422 -8.974854 -16.460109 -2.215212 9.320974 -9.726195 -9.926827 -16.151303 18.757961 25.873250 -70.572039 -23.091500 -33.354757 21.585359 -16.397698 -12.102527 -32.622944 0.584944 -29.929374 71.334698 -43.793349 -1.339668 10.200924 0.528728 -0.003372 -0.067292 0.085112 9.992433 -36.880360 8.576524 95.657806 82.140461 93.406207 2.891359 -5.274117 -5.020103 0.136343 1.847309 3.938750
496.888200 56.952777 373.914624 -52.250208 -53.643843 3.035404 -2.315538 21.872237 -2.322932 -0.892964 9.728551 -0.884649 -0.892964 9.728551 -0.884649 -0.653902 7.297738 -0.647547 -5.050808 13.554905 0.361616 -9.693975 -10.813340 2.705318 -1.655151 7.676545 10.957569 26.882544 -14.381032 -23.242726 -14.306017 -44.804121 41.905265 10.788758 -8.880816 -16.412168 -2.145925 9.433789 -9.678602 -9.817768 -16.296367 18.649887 26.291093 -70.552680 -23.459107 -33.449571 21.430531 -16.489772 -12.108915 -32.621146 0.558532 -30.056112 71.320137 -43.902609 -1.321168 10.178658 0.511707 0.004384 -0.046500 0.081270 10.297920 -36.798733 8.451146 88.478102 81.964357 85.792563 2.602352 -4.931913 -5.645206 0.112345 1.856348 4.219895
496.900023 56.946698 373.950094 -52.240122 -53.652039 3.012213 -2.301723 21.897735 -2.334469 -0.881722 9.734375 -0.887392 -0.881722 9.734375 -0.887392 -0.645436 7.302093 -0.649769 -5.075269 13.587065 0.355385 -9.735389 -10.752522 2.700437 -1.627881 7.723574 11.000995 26.859493 -14.444580 -23.264766 -14.316640 -44.816673 41.901060 10.845913 -8.737020 -16.334526 -2.073156 9.541877 -9.636900 -9.708087 -16.446375 18.552018 26.692658 -70.575491 -23.745595 -33.553599 21.249038 -16.669179 -12.103464 -32.614749 0.531710 -30.210668 71.293120 -44.028569 -1.302271 10.156363 0.495748 0.002183 -0.025813 0.072645 10.653135 -36.696798 8.306757 81.547023 81.713809 78.469987 2.259297 -4.647157 -6.305014 0.118428 1.902832 4.446646
496.910502 56.941645 373.984743 -52.257825 -53.664537 3.006124 -2.272649 21.920201 -2.340627 -0.866532 9.738811 -0.889809 -0.866532 9.738811 -0.889809 -0.634024 7.305401 -0.651813 -5.104293 13.620064 0.345726 -9.783984 -10.690117 2.690805 -1.603216 7.778569 11.034900 26.835524 -14.500357 -23.278784 -14.304269 -44.850386 41.859989 10.936092 -8.558074 -16.220462 -2.012775 9.649956 -9.598004 -9.590581 -16.588368 18.444153 27.094531 -70.554695 -24.093514 -33.671794 21.052014 -16.777831 -12.089715 -32.607361 0.504658 -30.330650 71.279887 -44.122310 -1.239451 10.139100 0.489543 -0.002517 -0.010819 0.062824 11.046124 -36.573359 8.148721 74.884229 81.417849 71.446662 1.940737 -4.431686 -6.843255 0.149985 1.989228 4.504273
